<svg width="16" height="15" viewBox="0 0 16 15" fill="none" xmlns="http://www.w3.org/2000/svg">
<path d="M14.8357 14.2527L14.3643 14.7241C14.104 14.9845 13.6819 14.9845 13.4215 14.7242L8.00036 9.303L2.57918 14.7242C2.3189 14.9845 1.89675 14.9845 1.6364 14.7241L1.16504 14.2527C0.904684 13.9924 0.904684 13.5702 1.16497 13.31L6.58615 7.88878L1.165 2.46764C0.904649 2.20729 0.904663 1.78516 1.16502 1.5248L1.63638 1.05344C1.89673 0.793086 2.31886 0.793072 2.57921 1.05342L8.00036 6.47457L13.4215 1.05341C13.6819 0.793058 14.104 0.793079 14.3643 1.05344L14.8357 1.52479C15.0961 1.78515 15.0961 2.20727 14.8357 2.46762L9.41457 7.88878L14.8357 13.31C15.0961 13.5703 15.096 13.9924 14.8357 14.2527Z" fill="black"/>
</svg>
